<svg width="528" height="36" viewBox="0 0 528 36" fill="none" xmlns="http://www.w3.org/2000/svg">
<path d="M0.323125 1.4V35H6.94713V23.96H12.8511C16.0671 23.96 18.8031 22.856 21.0111 20.696C23.2191 18.536 24.3231 15.848 24.3231 12.68C24.3231 9.512 23.2191 6.824 21.0111 4.664C18.8031 2.504 16.0671 1.4 12.8511 1.4H0.323125ZM6.94713 17.768V7.592H12.8511C15.6831 7.592 17.7471 9.752 17.7471 12.68C17.7471 15.56 15.6831 17.768 12.8511 17.768H6.94713ZM66.2196 35L58.7796 22.328C62.6676 20.552 65.2596 16.712 65.2596 12.536C65.2596 9.464 64.1556 6.824 61.9956 4.664C59.8356 2.504 57.1956 1.4 54.0756 1.4H40.6356V35H47.2596V23.336H52.2996L59.0676 35H66.2196ZM54.0756 7.592C56.5716 7.592 58.6356 9.8 58.6356 12.536C58.6356 15.272 56.5716 17.528 54.0756 17.528H47.2596V7.592H54.0756ZM110.44 30.584C113.848 27.176 115.528 23.048 115.528 18.2C115.528 13.352 113.848 9.224 110.44 5.864C107.08 2.456 102.952 0.775997 98.104 0.775997C93.256 0.775997 89.128 2.456 85.72 5.864C82.36 9.224 80.68 13.352 80.68 18.2C80.68 23.048 82.36 27.176 85.72 30.584C89.128 33.944 93.256 35.624 98.104 35.624C102.952 35.624 107.08 33.944 110.44 30.584ZM89.608 26.84C87.352 24.536 86.2 21.656 86.2 18.2C86.2 14.744 87.352 11.864 89.608 9.608C91.912 7.304 94.744 6.152 98.104 6.152C101.464 6.152 104.296 7.304 106.552 9.608C108.856 11.864 110.008 14.744 110.008 18.2C110.008 21.656 108.856 24.536 106.552 26.84C104.296 29.096 101.464 30.248 98.104 30.248C94.744 30.248 91.912 29.096 89.608 26.84ZM139.058 35.624C142.418 35.624 145.202 34.712 147.362 32.84C149.522 30.968 150.626 28.28 150.626 24.824V1.4H145.106V24.824C145.106 28.28 142.946 30.248 139.106 30.248C136.13 30.248 134.114 29.048 133.01 26.696L128.258 29.48C130.226 33.56 133.826 35.624 139.058 35.624ZM173.736 20.12H187.896V15.944H173.736V5.624H189.096V1.4H169.272V35H189.336V30.776H173.736V20.12ZM222.283 35.624C225.355 35.624 228.187 34.904 230.779 33.416C233.371 31.928 235.387 29.912 236.779 27.416L232.891 25.208C230.971 28.856 226.891 31.256 222.283 31.256C218.395 31.256 215.227 30.008 212.779 27.512C210.331 25.016 209.131 21.896 209.131 18.2C209.131 14.456 210.331 11.336 212.779 8.84C215.227 6.344 218.395 5.096 222.283 5.096C226.891 5.096 230.971 7.496 232.891 11.192L236.779 8.936C233.899 3.944 228.427 0.775997 222.283 0.775997C217.195 0.775997 212.971 2.456 209.659 5.816C206.347 9.176 204.715 13.304 204.715 18.2C204.715 23.096 206.347 27.224 209.659 30.584C212.971 33.944 217.195 35.624 222.283 35.624ZM251.335 1.4V4.568H261.655V35H265.015V4.568H275.335V1.4H251.335ZM292.137 35H295.497V1.4H292.137V35ZM334.159 1.4H315.535V35H318.079V19.64H333.583V17.24H318.079V3.8H334.159V1.4ZM372.827 1.4L362.219 18.728L351.563 1.4H348.683L360.923 21.176V35H363.467V21.176L375.707 1.4H372.827ZM389.094 34.856C389.91 34.04 389.91 32.6 389.094 31.784C388.278 30.968 386.838 30.968 386.022 31.784C385.206 32.6 385.206 34.04 386.022 34.856C386.838 35.672 388.278 35.672 389.094 34.856ZM410.881 1.4H409.105V35H427.201V33.368H410.881V1.4ZM444.964 35H446.74V1.4H444.964V35ZM478.596 35L491.268 1.4H489.348L477.636 32.792L465.876 1.4H464.004L476.676 35H478.596ZM510.256 18.872H526.096V17.24H510.256V3.032H527.296V1.4H508.48V35H527.536V33.368H510.256V18.872Z" fill="white"/>
</svg>
