<svg width="376" height="36" viewBox="0 0 376 36" fill="none" xmlns="http://www.w3.org/2000/svg">
<path d="M0.127813 1.4V35H6.75181V23.96H12.6558C15.8718 23.96 18.6078 22.856 20.8158 20.696C23.0238 18.536 24.1278 15.848 24.1278 12.68C24.1278 9.512 23.0238 6.824 20.8158 4.664C18.6078 2.504 15.8718 1.4 12.6558 1.4H0.127813ZM6.75181 17.768V7.592H12.6558C15.4878 7.592 17.5518 9.752 17.5518 12.68C17.5518 15.56 15.4878 17.768 12.6558 17.768H6.75181ZM66.0243 35L58.5843 22.328C62.4723 20.552 65.0643 16.712 65.0643 12.536C65.0643 9.464 63.9603 6.824 61.8003 4.664C59.6403 2.504 57.0003 1.4 53.8803 1.4H40.4403V35H47.0643V23.336H52.1043L58.8723 35H66.0243ZM53.8803 7.592C56.3763 7.592 58.4403 9.8 58.4403 12.536C58.4403 15.272 56.3763 17.528 53.8803 17.528H47.0643V7.592H53.8803ZM110.245 30.584C113.653 27.176 115.333 23.048 115.333 18.2C115.333 13.352 113.653 9.224 110.245 5.864C106.885 2.456 102.757 0.775997 97.9087 0.775997C93.0607 0.775997 88.9327 2.456 85.5247 5.864C82.1647 9.224 80.4847 13.352 80.4847 18.2C80.4847 23.048 82.1647 27.176 85.5247 30.584C88.9327 33.944 93.0607 35.624 97.9087 35.624C102.757 35.624 106.885 33.944 110.245 30.584ZM89.4127 26.84C87.1567 24.536 86.0047 21.656 86.0047 18.2C86.0047 14.744 87.1567 11.864 89.4127 9.608C91.7167 7.304 94.5487 6.152 97.9087 6.152C101.269 6.152 104.101 7.304 106.357 9.608C108.661 11.864 109.813 14.744 109.813 18.2C109.813 21.656 108.661 24.536 106.357 26.84C104.101 29.096 101.269 30.248 97.9087 30.248C94.5487 30.248 91.7167 29.096 89.4127 26.84ZM138.863 35.624C142.223 35.624 145.007 34.712 147.167 32.84C149.327 30.968 150.431 28.28 150.431 24.824V1.4H144.911V24.824C144.911 28.28 142.751 30.248 138.911 30.248C135.935 30.248 133.919 29.048 132.815 26.696L128.063 29.48C130.031 33.56 133.631 35.624 138.863 35.624ZM173.541 20.12H187.701V15.944H173.541V5.624H188.901V1.4H169.077V35H189.141V30.776H173.541V20.12ZM222.087 35.624C225.159 35.624 227.991 34.904 230.583 33.416C233.175 31.928 235.191 29.912 236.583 27.416L232.695 25.208C230.775 28.856 226.695 31.256 222.087 31.256C218.199 31.256 215.031 30.008 212.583 27.512C210.135 25.016 208.935 21.896 208.935 18.2C208.935 14.456 210.135 11.336 212.583 8.84C215.031 6.344 218.199 5.096 222.087 5.096C226.695 5.096 230.775 7.496 232.695 11.192L236.583 8.936C233.703 3.944 228.231 0.775997 222.087 0.775997C216.999 0.775997 212.775 2.456 209.463 5.816C206.151 9.176 204.519 13.304 204.519 18.2C204.519 23.096 206.151 27.224 209.463 30.584C212.775 33.944 216.999 35.624 222.087 35.624ZM251.14 1.4V4.568H261.46V35H264.82V4.568H275.14V1.4H251.14ZM291.942 35H295.302V1.4H291.942V35ZM333.964 1.4H315.34V35H317.884V19.64H333.388V17.24H317.884V3.8H333.964V1.4ZM372.632 1.4L362.024 18.728L351.368 1.4H348.488L360.728 21.176V35H363.272V21.176L375.512 1.4H372.632Z" fill="white"/>
</svg>
